<svg width="206" height="64" viewBox="0 0 206 64" fill="none" xmlns="http://www.w3.org/2000/svg" role="img" aria-label="Graphisoft Archicad">
<path d="M0 11.0108C0 4.92968 4.92968 0 11.0108 0H52.9892C59.0703 0 64 4.92968 64 11.0108V52.9892C64 59.0703 59.0703 64 52.9892 64H11.0108C4.92968 64 0 59.0703 0 52.9892V11.0108Z" fill="white"/>
<path d="M48.8594 38.1935C48.8594 36.4868 50.2495 35.0967 51.9561 35.0967C53.6628 35.0967 55.0529 36.4868 55.0529 38.1935C55.0529 39.9001 53.6628 41.2902 51.9561 41.2902C50.2495 41.2902 48.8594 39.9001 48.8594 38.1935Z" fill="#00A0D1"/>
<path d="M8.73669 51.1388C10.2117 51.9063 12.0297 51.3326 12.7972 49.8576C15.385 44.8839 19.4433 37.7141 24.0935 31.3922C26.4187 28.2312 28.8483 25.3422 31.2713 23.0599C33.7227 20.7507 36.0024 19.2199 38.0099 18.5427C41.7181 17.2924 44.2143 18.2219 45.9037 19.9702C47.7677 21.8992 48.9773 25.199 48.9773 29.0441C48.9773 30.7069 50.3252 32.0548 51.988 32.0548C53.6508 32.0548 54.9988 30.7069 54.9988 29.0441C54.9988 24.1117 53.4728 19.1378 50.234 15.786C46.8206 12.2535 41.8464 10.8948 36.0855 12.8374C32.911 13.9082 29.8906 16.0883 27.1426 18.6768C24.3661 21.2922 21.6968 24.4882 19.2431 27.824C14.3356 34.4956 10.1152 41.967 7.45578 47.0784C6.68834 48.5534 7.26168 50.3713 8.73669 51.1388Z" fill="#00A0D1"/>
<path d="M186.773 51.1369C185.679 51.1369 184.684 50.8538 183.79 50.2875C182.895 49.7212 182.181 48.8717 181.647 47.7391C181.113 46.6065 180.846 45.2004 180.846 43.5207C180.846 41.7768 181.122 40.3417 181.676 39.2155C182.229 38.0893 182.953 37.256 183.848 36.7154C184.749 36.1748 185.717 35.9045 186.753 35.9045C187.532 35.9045 188.198 36.0397 188.751 36.31C189.305 36.5738 189.762 36.9149 190.122 37.3332C190.483 37.7515 190.756 38.1859 190.943 38.6363H191.039V31.1553H195.76V50.9246H191.088V48.521H190.943C190.743 48.9779 190.46 49.4058 190.093 49.8048C189.726 50.2038 189.266 50.5256 188.713 50.7701C188.166 51.0147 187.519 51.1369 186.773 51.1369ZM188.414 47.4592C188.986 47.4592 189.475 47.2983 189.881 46.9765C190.286 46.6483 190.598 46.1882 190.817 45.5961C191.036 45.0041 191.145 44.3091 191.145 43.5111C191.145 42.7002 191.036 42.002 190.817 41.4164C190.605 40.8308 190.293 40.3803 189.881 40.065C189.475 39.7496 188.986 39.592 188.414 39.592C187.828 39.592 187.333 39.7529 186.927 40.0746C186.522 40.3964 186.213 40.8501 186 41.4357C185.794 42.0213 185.692 42.7131 185.692 43.5111C185.692 44.3091 185.798 45.0041 186.01 45.5961C186.222 46.1882 186.528 46.6483 186.927 46.9765C187.333 47.2983 187.828 47.4592 188.414 47.4592Z" fill="#150D12"/>
<path d="M169.746 51.1756C168.8 51.1756 167.96 51.0179 167.226 50.7026C166.499 50.3808 165.923 49.8981 165.499 49.2546C165.08 48.6046 164.871 47.7906 164.871 46.8124C164.871 45.9887 165.016 45.2937 165.305 44.7274C165.595 44.1611 165.994 43.7009 166.502 43.347C167.011 42.993 167.596 42.726 168.259 42.5458C168.922 42.3592 169.63 42.2337 170.383 42.1693C171.226 42.0921 171.905 42.0117 172.42 41.928C172.935 41.8379 173.308 41.7124 173.539 41.5515C173.778 41.3842 173.897 41.1493 173.897 40.8469V40.7986C173.897 40.3031 173.726 39.9202 173.385 39.6499C173.044 39.3796 172.584 39.2445 172.005 39.2445C171.38 39.2445 170.878 39.3796 170.499 39.6499C170.119 39.9202 169.878 40.2934 169.775 40.7696L165.421 40.6152C165.55 39.7143 165.881 38.9098 166.416 38.202C166.956 37.4876 167.696 36.9278 168.636 36.5223C169.582 36.1105 170.718 35.9045 172.043 35.9045C172.989 35.9045 173.861 36.0172 174.659 36.2424C175.457 36.4612 176.152 36.783 176.744 37.2077C177.336 37.626 177.793 38.1408 178.115 38.7522C178.443 39.3635 178.607 40.0618 178.607 40.8469V50.9246H174.167V48.8588H174.051C173.787 49.3608 173.449 49.7855 173.038 50.133C172.632 50.4805 172.153 50.7412 171.599 50.9149C171.052 51.0887 170.434 51.1756 169.746 51.1756ZM171.203 48.0866C171.712 48.0866 172.169 47.9836 172.574 47.7777C172.986 47.5718 173.314 47.2886 173.559 46.9282C173.803 46.5614 173.926 46.1367 173.926 45.6541V44.2447C173.79 44.3155 173.626 44.3799 173.433 44.4378C173.247 44.4957 173.041 44.5504 172.815 44.6019C172.59 44.6534 172.359 44.6984 172.12 44.737C171.882 44.7756 171.654 44.811 171.435 44.8432C170.991 44.914 170.611 45.0234 170.296 45.1714C169.987 45.3194 169.749 45.5125 169.582 45.7506C169.421 45.9823 169.34 46.259 169.34 46.5807C169.34 47.0698 169.514 47.4431 169.862 47.7005C170.216 47.9579 170.663 48.0866 171.203 48.0866Z" fill="#150D12"/>
<path d="M156.405 51.2045C154.841 51.2045 153.499 50.8828 152.379 50.2392C151.266 49.5957 150.41 48.7012 149.812 47.5557C149.213 46.4038 148.914 45.0717 148.914 43.5594C148.914 42.0406 149.213 40.7085 149.812 39.563C150.417 38.4111 151.276 37.5134 152.389 36.8698C153.509 36.2263 154.844 35.9045 156.395 35.9045C157.766 35.9045 158.96 36.1523 159.976 36.6478C161 37.1433 161.798 37.8448 162.37 38.7522C162.95 39.6531 163.255 40.7117 163.287 41.928H158.876C158.786 41.1686 158.528 40.5734 158.104 40.1422C157.685 39.711 157.138 39.4954 156.463 39.4954C155.916 39.4954 155.436 39.6499 155.024 39.9588C154.613 40.2613 154.291 40.7117 154.059 41.3102C153.834 41.9023 153.721 42.6359 153.721 43.5111C153.721 44.3863 153.834 45.1264 154.059 45.7313C154.291 46.3298 154.613 46.7835 155.024 47.0923C155.436 47.3948 155.916 47.546 156.463 47.546C156.9 47.546 157.286 47.4527 157.621 47.2661C157.962 47.0795 158.242 46.806 158.461 46.4456C158.68 46.0788 158.818 45.6347 158.876 45.1135H163.287C163.242 46.3362 162.937 47.4045 162.37 48.3183C161.81 49.2321 161.022 49.9432 160.005 50.4516C158.995 50.9535 157.795 51.2045 156.405 51.2045Z" fill="#150D12"/>
<path d="M141.894 50.9246V36.0976H146.614V50.9246H141.894ZM144.259 34.3698C143.596 34.3698 143.026 34.151 142.55 33.7134C142.074 33.2693 141.836 32.7352 141.836 32.111C141.836 31.4932 142.074 30.9655 142.55 30.5279C143.026 30.0838 143.596 29.8618 144.259 29.8618C144.928 29.8618 145.498 30.0838 145.967 30.5279C146.444 30.9655 146.682 31.4932 146.682 32.111C146.682 32.7352 146.444 33.2693 145.967 33.7134C145.498 34.151 144.928 34.3698 144.259 34.3698Z" fill="#150D12"/>
<path d="M129.468 42.4686V50.9246H124.748V31.1553H129.314V38.8197H129.478C129.813 37.9059 130.36 37.1916 131.119 36.6768C131.885 36.162 132.821 35.9045 133.928 35.9045C134.971 35.9045 135.878 36.1362 136.65 36.5996C137.422 37.0565 138.021 37.7032 138.446 38.5398C138.877 39.3764 139.089 40.3546 139.083 41.4743V50.9246H134.362V42.401C134.369 41.5773 134.163 40.9337 133.745 40.4704C133.326 40.0071 132.737 39.7754 131.978 39.7754C131.483 39.7754 131.045 39.8848 130.665 40.1036C130.292 40.316 129.999 40.6216 129.787 41.0206C129.581 41.4196 129.475 41.9023 129.468 42.4686Z" fill="#150D12"/>
<path d="M115.586 51.2045C114.023 51.2045 112.681 50.8828 111.561 50.2392C110.448 49.5957 109.592 48.7012 108.993 47.5557C108.395 46.4038 108.096 45.0717 108.096 43.5594C108.096 42.0406 108.395 40.7085 108.993 39.563C109.598 38.4111 110.457 37.5134 111.571 36.8698C112.691 36.2263 114.026 35.9045 115.577 35.9045C116.947 35.9045 118.141 36.1523 119.158 36.6478C120.181 37.1433 120.979 37.8448 121.552 38.7522C122.131 39.6531 122.437 40.7117 122.469 41.928H118.058C117.967 41.1686 117.71 40.5734 117.285 40.1422C116.867 39.711 116.32 39.4954 115.644 39.4954C115.097 39.4954 114.618 39.6499 114.206 39.9588C113.794 40.2613 113.472 40.7117 113.241 41.3102C113.016 41.9023 112.903 42.6359 112.903 43.5111C112.903 44.3863 113.016 45.1264 113.241 45.7313C113.472 46.3298 113.794 46.7835 114.206 47.0923C114.618 47.3948 115.097 47.546 115.644 47.546C116.082 47.546 116.468 47.4527 116.803 47.2661C117.144 47.0795 117.424 46.806 117.643 46.4456C117.861 46.0788 118 45.6347 118.058 45.1135H122.469C122.424 46.3362 122.118 47.4045 121.552 48.3183C120.992 49.2321 120.204 49.9432 119.187 50.4516C118.177 50.9535 116.976 51.2045 115.586 51.2045Z" fill="#150D12"/>
<path d="M97.8945 50.9247V36.0977H102.48V38.8006H102.634C102.904 37.8224 103.345 37.0952 103.957 36.619C104.568 36.1363 105.279 35.895 106.09 35.895C106.482 35.895 106.856 35.9433 107.21 36.0398C107.564 36.1363 107.882 36.2683 108.165 36.4356L106.775 40.3161C106.569 40.2131 106.347 40.1262 106.109 40.0555C105.878 39.9847 105.62 39.9493 105.337 39.9493C104.848 39.9493 104.394 40.0715 103.976 40.3161C103.564 40.5606 103.236 40.9017 102.991 41.3393C102.747 41.7705 102.621 42.2821 102.615 42.8741V50.9247H97.8945Z" fill="#150D12"/>
<path d="M81.4713 50.9246H76.3359L83.0061 31.1553H89.3675L96.0377 50.9246H90.9023L86.2592 36.1362H86.1048L81.4713 50.9246ZM80.786 43.1443H91.5201V46.7738H80.786V43.1443Z" fill="#150D12"/>
<path d="M84.6515 19.5556H89.0536V25.1111L89.0529 25.1114C87.3031 25.88 85.8805 26.1885 84.0548 26.1885C80.0377 26.1885 77.0762 23.3809 77.0762 19.5368C77.0762 17.6048 77.8359 15.9036 79.0953 14.6854C80.3546 13.4668 82.1138 12.7313 84.1129 12.7313C85.6507 12.7313 86.7274 12.9808 88.7843 13.8461V15.7493L88.7836 15.7489V15.7501C87.2456 14.9048 85.6501 14.4622 84.0744 14.4622C82.6517 14.4622 81.3875 15.0052 80.4789 15.9039C79.5709 16.8024 79.0183 18.0564 79.0183 19.4786C79.0183 22.4007 81.2113 24.4569 84.3241 24.4569C85.3431 24.4569 86.2661 24.2257 87.1685 23.9377V21.2474H84.6508V19.5563H84.6516L84.6515 19.5556ZM113.245 26.0141H113.244L113.244 26.0148H111.322L109.573 22.1519H103.998L102.346 26.0141H102.346L102.345 26.0148H100.423H99.3173L97.5865 23.3241C95.8563 20.6326 95.0596 20.317 94.0983 20.317H93.3106L93.3197 26.014H93.319V26.0147H91.4352V12.9053H91.436V12.9043H94.7427C97.3949 12.9043 99.0483 14.3079 99.0483 16.5755C99.0483 17.7148 98.6043 18.6377 97.7902 19.2631C97.5193 19.4713 97.2072 19.6466 96.8568 19.7859C98.0479 20.5742 98.7797 21.7852 99.7789 23.4194C100.157 24.031 100.432 24.4359 100.848 25.0188L106.056 12.8282L106.056 12.8274H107.382L113.245 26.0141ZM106.689 15.7121L104.73 20.4585H108.804L106.689 15.7121ZM93.1429 14.5198L93.1344 18.6404H94.3457C95.3542 18.6404 96.0048 18.3792 96.401 17.9811C96.797 17.5828 96.9386 17.0476 96.9294 16.4998C96.9098 15.2694 96.1786 14.5199 94.3523 14.5199L93.1429 14.5198ZM122.886 16.6719C122.886 17.5716 122.621 18.3816 122.069 19.0081C121.359 19.814 120.173 20.3168 118.464 20.3168H116.504V26.0147H116.503L114.619 26.0151V12.9044H114.62V12.9035H118.715C121.579 12.9035 122.886 14.5953 122.886 16.6719ZM116.504 14.5961V18.64H118.637C119.339 18.64 119.916 18.4556 120.317 18.1079C120.719 17.7601 120.945 17.249 120.945 16.5956C120.945 15.6348 120.425 14.5961 118.714 14.5961H116.504ZM133.761 12.9048H133.76V18.64H126.418V12.904H124.535V12.9048H124.534V26.0151H126.417V26.0144H126.418L126.407 20.3165H133.75L133.76 26.0151H135.644V26.0144H135.645V12.9039H133.761V12.9048ZM138.257 12.7858H138.256V25.8956H140.141V25.8948H140.142V12.785H138.257L138.257 12.7858ZM144.246 15.9801C144.246 15.5192 144.462 15.1303 144.83 14.8564C145.198 14.5825 145.717 14.424 146.322 14.424C147.206 14.424 148.283 14.731 149.398 15.789V15.7875L149.399 15.7882V13.654C148.476 13.0385 147.475 12.7315 146.476 12.7315C145.425 12.7315 144.532 12.9929 143.86 13.4655C142.996 14.0731 142.497 15.0302 142.497 16.2306C142.497 19.8251 148.166 20.1327 148.166 22.8426C148.166 23.2082 147.998 23.6215 147.648 23.9436C147.625 23.9645 147.595 23.9812 147.57 24.0013C147.501 24.0585 147.432 24.1159 147.351 24.1653C147.019 24.366 146.582 24.4957 146.034 24.4957C144.746 24.4957 143.534 23.822 142.575 22.5922V22.5938L142.574 22.5928V24.9767C143.669 25.8031 144.823 26.1882 146.243 26.1882C147.302 26.1882 148.22 25.8131 148.874 25.1809C149.528 24.5488 149.917 23.6594 149.917 22.6305C149.917 18.4591 144.246 18.4979 144.246 15.9801ZM165.102 19.4591C165.102 21.4487 164.263 23.3288 162.738 24.5931C161.553 25.5769 159.952 26.1881 158.009 26.1881C153.722 26.1881 151.012 23.0163 151.012 19.4598C151.012 17.6427 151.709 15.9606 152.937 14.7328C154.165 13.5049 155.924 12.7312 158.048 12.7312C162.373 12.7312 165.102 15.8071 165.102 19.4591ZM160.996 23.5234C162.26 22.6343 163.048 21.1812 163.048 19.4598C163.048 16.5764 160.877 14.4618 157.936 14.4618C156.475 14.4618 155.201 14.9903 154.293 15.879C153.385 16.7681 152.843 18.0175 152.843 19.4591C152.843 22.3238 155.014 24.4572 157.937 24.4572C159.11 24.4572 160.157 24.1134 160.996 23.5234ZM184.605 12.9036H166.825V12.9045H166.824V26.0151H168.708L168.709 26.0147V20.3168H173.822V20.3159H173.822V18.64H168.709V14.5961H178.185V26.0151H180.069L180.07 26.0147V14.596H184.604V14.5952H184.605L184.605 12.9036Z" fill="#150D12"/>
</svg>
